<svg xmlns="http://www.w3.org/2000/svg" width="512" height="320" viewBox="0 0 512 320" role="img" aria-label="Blue gray pixel dungeon stone brick floor texture">
  <rect width="512" height="320" fill="#142838"/>
  <g shape-rendering="crispEdges">
    <rect x="0" y="0" width="118" height="62" fill="#314a59"/>
    <rect x="122" y="0" width="84" height="62" fill="#2d4453"/>
    <rect x="210" y="0" width="144" height="62" fill="#354f5e"/>
    <rect x="358" y="0" width="154" height="62" fill="#2d4453"/>
    <rect x="0" y="66" width="70" height="62" fill="#354f5e"/>
    <rect x="74" y="66" width="122" height="62" fill="#314a59"/>
    <rect x="200" y="66" width="82" height="62" fill="#2d4453"/>
    <rect x="286" y="66" width="142" height="62" fill="#354f5e"/>
    <rect x="432" y="66" width="80" height="62" fill="#314a59"/>
    <rect x="0" y="132" width="142" height="62" fill="#2d4453"/>
    <rect x="146" y="132" width="110" height="62" fill="#354f5e"/>
    <rect x="260" y="132" width="74" height="62" fill="#314a59"/>
    <rect x="338" y="132" width="174" height="62" fill="#2d4453"/>
    <rect x="0" y="198" width="96" height="58" fill="#314a59"/>
    <rect x="100" y="198" width="126" height="58" fill="#2d4453"/>
    <rect x="230" y="198" width="136" height="58" fill="#354f5e"/>
    <rect x="370" y="198" width="142" height="58" fill="#314a59"/>
    <rect x="0" y="260" width="128" height="60" fill="#354f5e"/>
    <rect x="132" y="260" width="74" height="60" fill="#314a59"/>
    <rect x="210" y="260" width="154" height="60" fill="#2d4453"/>
    <rect x="368" y="260" width="144" height="60" fill="#354f5e"/>
  </g>
  <g shape-rendering="crispEdges" fill="#1a3140">
    <rect x="8" y="3" width="16" height="8"/><rect x="30" y="3" width="24" height="12"/><rect x="60" y="3" width="11" height="7"/><rect x="82" y="3" width="22" height="10"/>
    <rect x="132" y="3" width="18" height="9"/><rect x="164" y="3" width="25" height="11"/>
    <rect x="222" y="3" width="26" height="10"/><rect x="258" y="3" width="42" height="15"/><rect x="314" y="3" width="28" height="9"/>
    <rect x="370" y="3" width="35" height="13"/><rect x="414" y="3" width="52" height="9"/><rect x="482" y="3" width="20" height="12"/>
    <rect x="8" y="69" width="42" height="13"/><rect x="84" y="69" width="30" height="10"/><rect x="126" y="69" width="52" height="13"/>
    <rect x="210" y="69" width="28" height="11"/><rect x="248" y="69" width="22" height="7"/><rect x="300" y="69" width="58" height="15"/><rect x="372" y="69" width="42" height="11"/>
    <rect x="444" y="69" width="48" height="10"/>
    <rect x="10" y="135" width="56" height="14"/><rect x="78" y="135" width="38" height="9"/>
    <rect x="156" y="135" width="44" height="10"/><rect x="214" y="135" width="28" height="13"/>
    <rect x="272" y="135" width="34" height="11"/><rect x="348" y="135" width="64" height="13"/><rect x="428" y="135" width="66" height="10"/>
    <rect x="12" y="201" width="48" height="10"/><rect x="112" y="201" width="38" height="12"/><rect x="160" y="201" width="50" height="9"/>
    <rect x="242" y="201" width="52" height="11"/><rect x="306" y="201" width="40" height="15"/><rect x="384" y="201" width="72" height="13"/>
    <rect x="12" y="263" width="56" height="12"/><rect x="80" y="263" width="36" height="8"/><rect x="144" y="263" width="42" height="10"/>
    <rect x="224" y="263" width="70" height="12"/><rect x="314" y="263" width="38" height="9"/><rect x="384" y="263" width="58" height="14"/><rect x="456" y="263" width="40" height="9"/>
  </g>
  <g shape-rendering="crispEdges" fill="#0d2130">
    <rect x="86" y="44" width="26" height="5"/><rect x="160" y="47" width="30" height="5"/><rect x="286" y="42" width="52" height="6"/><rect x="390" y="48" width="58" height="6"/>
    <rect x="18" y="108" width="28" height="5"/><rect x="112" y="108" width="72" height="7"/><rect x="236" y="112" width="28" height="5"/><rect x="332" y="108" width="64" height="6"/>
    <rect x="44" y="176" width="72" height="7"/><rect x="178" y="176" width="48" height="6"/><rect x="288" y="172" width="32" height="7"/><rect x="406" y="178" width="72" height="6"/>
    <rect x="20" y="238" width="42" height="5"/><rect x="128" y="240" width="80" height="7"/><rect x="260" y="238" width="88" height="6"/><rect x="416" y="238" width="62" height="6"/>
    <rect x="38" y="300" width="74" height="6"/><rect x="236" y="300" width="88" height="6"/><rect x="400" y="302" width="76" height="5"/>
  </g>
  <g shape-rendering="crispEdges" fill="#78909d">
    <rect x="2" y="2" width="112" height="3"/><rect x="124" y="2" width="78" height="3"/><rect x="212" y="2" width="138" height="3"/><rect x="360" y="2" width="150" height="3"/>
    <rect x="2" y="68" width="64" height="3"/><rect x="76" y="68" width="116" height="3"/><rect x="202" y="68" width="76" height="3"/><rect x="288" y="68" width="136" height="3"/><rect x="434" y="68" width="76" height="3"/>
    <rect x="2" y="134" width="136" height="3"/><rect x="148" y="134" width="104" height="3"/><rect x="262" y="134" width="68" height="3"/><rect x="340" y="134" width="170" height="3"/>
    <rect x="2" y="200" width="90" height="3"/><rect x="102" y="200" width="120" height="3"/><rect x="232" y="200" width="130" height="3"/><rect x="372" y="200" width="138" height="3"/>
    <rect x="2" y="262" width="122" height="3"/><rect x="134" y="262" width="68" height="3"/><rect x="212" y="262" width="148" height="3"/><rect x="370" y="262" width="140" height="3"/>
  </g>
  <g shape-rendering="crispEdges" fill="#5f7786">
    <rect x="56" y="24" width="3" height="28"/><rect x="266" y="26" width="3" height="26"/><rect x="444" y="22" width="3" height="22"/>
    <rect x="112" y="90" width="3" height="27"/><rect x="244" y="88" width="3" height="23"/><rect x="372" y="94" width="3" height="22"/>
    <rect x="74" y="156" width="3" height="29"/><rect x="198" y="156" width="3" height="24"/><rect x="460" y="154" width="3" height="28"/>
    <rect x="168" y="220" width="3" height="24"/><rect x="318" y="220" width="3" height="26"/>
    <rect x="58" y="282" width="3" height="28"/><rect x="284" y="282" width="3" height="22"/><rect x="434" y="284" width="3" height="24"/>
  </g>
</svg>
